<svg width="162" height="34" viewBox="0 0 162 34" fill="none" xmlns="http://www.w3.org/2000/svg">
<path fill-rule="evenodd" clip-rule="evenodd" d="M0.00195312 9.98136V10.6669C0.00195312 12.0379 0.485679 13.7415 0.948964 14.667C1.24192 15.2531 1.4906 15.733 1.85851 16.2471C2.29794 16.8572 3.0576 17.7451 3.64011 18.1975L5.0947 19.2292C6.97168 20.2507 8.20825 20.6105 10.603 20.6105C12.5584 20.6105 14.7215 19.7777 16.1454 18.7425C17.634 17.6593 18.7378 16.3397 19.5348 14.667C21.0883 11.4107 20.7101 7.26664 18.6253 4.36684C18.5333 4.23659 18.4585 4.14405 18.3665 4.02065C18.2642 3.88354 18.1756 3.78756 18.0803 3.66418C17.9816 3.53735 17.8896 3.4688 17.7942 3.34883L15.7843 1.62814C13.8597 0.445597 12.4017 0 9.88085 0C7.67682 0 5.60567 0.918614 3.99439 2.12858C3.1666 2.74899 2.15487 3.83899 1.61664 4.72675C0.700289 6.24178 0.00195312 7.97275 0.00195312 9.98136Z" fill="#0AD652"/>
<path fill-rule="evenodd" clip-rule="evenodd" d="M6.85742 6.76398C6.85742 8.61492 8.37672 10.0991 10.206 10.0991C11.3472 10.0991 11.4018 8.54637 10.3082 8.44011C9.70526 8.38183 9.44637 8.303 9.08187 7.97738C7.99519 6.99706 8.68331 5.11528 10.2469 5.11528C11.17 5.11528 11.9399 5.8488 11.9399 6.76398V10.106C11.9399 11.0589 10.2673 9.95514 8.46529 11.0109C6.21358 12.3305 6.31919 15.7444 8.84682 16.8687C9.2522 17.0504 9.72912 17.1635 10.2469 17.167C12.0796 17.1772 13.6364 15.741 13.6364 13.849C13.6364 12.8104 12.0422 12.6732 11.9433 13.8181C11.8923 14.4008 11.7695 14.6888 11.4426 15.0143C10.4207 16.029 8.55386 15.3777 8.55386 13.8112C8.55386 13.1634 8.95924 12.7076 9.3067 12.4608C10.2162 11.8198 11.9909 12.5293 12.904 11.8918C13.2582 11.645 13.6364 11.1994 13.6364 10.5482V6.68514C13.6364 4.92332 12.083 3.42886 10.2094 3.44943C8.38354 3.46657 6.86082 4.92675 6.86082 6.76741" fill="white"/>
<mask id="mask0_32205_82102" style="mask-type:luminance" maskUnits="userSpaceOnUse" x="83" y="5" width="79" height="12">
<path d="M161.003 5.11328H83.4629V16.2619H161.003V5.11328Z" fill="white"/>
</mask>
<g mask="url(#mask0_32205_82102)">
<path d="M86.9492 15.4403H94.6031L96.2467 11.6593H103.751L102.069 15.4403H109.817L114.066 5.9626H106.264L104.864 9.15895H97.3646L98.7869 5.9626L91.205 5.95703L86.9492 15.4403Z" fill="#0062A8"/>
<path fill-rule="evenodd" clip-rule="evenodd" d="M131.047 9.18027H138.291C138.247 7.58766 136.714 6.48508 133.681 6.04516C127.7 5.15976 121.229 5.53842 116.619 8.09439C112.989 10.1213 112.712 13.1729 116.326 14.6709C119.37 15.9182 125.767 16.0463 130.344 15.2667C133.306 14.76 135.568 13.7799 136.842 12.3154H129.442C128.485 13.0559 127.229 13.4291 125.767 13.4402C121.611 13.4681 121.064 12.204 121.788 10.745C122.652 9.02992 124.456 8.09439 127.212 8.01644C129.381 7.95517 130.455 8.43965 131.042 9.17469" fill="#0062A8"/>
<path fill-rule="evenodd" clip-rule="evenodd" d="M149.86 5.95703L146.633 13.1795H157.513L156.5 15.4347H137.795L142.006 5.95703H149.86Z" fill="#0062A8"/>
</g>
<path d="M78.1426 3.16406V17.9152" stroke="black" stroke-width="0.68" stroke-linecap="round"/>
<path d="M0.401268 27.2228C0.401268 26.5788 0.942926 26.1109 1.70344 26.1109C2.35451 26.1109 2.74298 26.309 3.02748 26.5953L2.67732 27.0082C2.43112 26.7659 2.1302 26.6614 1.75815 26.6614C1.22196 26.6614 0.975753 26.8705 0.975753 27.1844C0.975753 27.5421 1.36422 27.6469 1.89493 27.7679C2.69374 27.9496 3.1205 28.2745 3.1205 28.9461C3.1205 29.7113 2.44752 30.0747 1.79645 30.0747C1.09065 30.0747 0.53258 29.7388 0.193359 29.381L0.559935 28.9131C0.822557 29.1937 1.22743 29.48 1.76362 29.48C2.24508 29.48 2.53506 29.2654 2.53506 28.9351C2.53506 28.5551 2.2232 28.4121 1.62683 28.2854C0.910097 28.1313 0.401268 27.8725 0.401268 27.2228ZM5.19958 26.0007H5.77407V28.7093L7.24583 27.1567H7.96257L6.76437 28.401L8.1103 30.0195H7.42639L6.39232 28.7919L5.77407 29.4361V30.0195H5.19958V26.0007ZM9.84598 26.2649C9.84598 26.0558 10.0101 25.8906 10.218 25.8906C10.4259 25.8906 10.59 26.0558 10.59 26.2649C10.59 26.4742 10.4259 26.6393 10.218 26.6393C10.0101 26.6393 9.84598 26.4742 9.84598 26.2649ZM9.93352 27.1567H10.508V30.0195H9.93352V27.1567ZM12.7233 26.0007H13.2978V30.0195H12.7233V26.0007ZM15.5389 26.0007H16.1135V30.0195H15.5389V26.0007ZM21.9374 28.4782C21.9374 29.0781 22.4189 29.5517 23.0044 29.5517C23.5897 29.5517 24.0712 29.0781 24.0712 28.4782V26.1659H24.6458V28.4782C24.6458 29.4085 23.9289 30.0747 23.0044 30.0747C22.0797 30.0747 21.3629 29.4085 21.3629 28.4782V26.1659H21.9374V28.4782ZM27.4347 28.5882C27.4347 29.1883 27.8068 29.5517 28.3376 29.5517C28.8682 29.5517 29.2129 29.1883 29.2129 28.5882C29.2129 27.9881 28.8682 27.6248 28.3376 27.6248C27.8068 27.6248 27.4347 27.9881 27.4347 28.5882ZM26.8604 31.1206V27.1567H27.4347V27.6744C27.6208 27.3275 27.9436 27.1018 28.447 27.1018C29.1528 27.1018 29.7874 27.7128 29.7874 28.5882C29.7874 29.4636 29.1528 30.0747 28.447 30.0747C27.9272 30.0747 27.6099 29.8654 27.4347 29.535V31.1206H26.8604ZM31.6218 29.6562C31.6218 29.425 31.8078 29.2377 32.0321 29.2377C32.2564 29.2377 32.4424 29.425 32.4424 29.6562C32.4424 29.8874 32.2564 30.0747 32.0321 30.0747C31.8078 30.0747 31.6218 29.8874 31.6218 29.6562ZM37.5322 26.1659H38.1341V29.4691H40.4321V30.0195H37.5322V26.1659ZM44.2426 28.3294C44.1606 27.8835 43.8651 27.6248 43.4165 27.6248C42.9678 27.6248 42.6723 27.8835 42.5903 28.3294H44.2426ZM41.994 28.5882C41.994 27.7128 42.6012 27.1018 43.4165 27.1018C44.2317 27.1018 44.839 27.7128 44.839 28.5882V28.7534H42.5793C42.6396 29.2544 42.9897 29.5517 43.4712 29.5517C43.8214 29.5517 44.1879 29.425 44.3904 29.1552L44.746 29.513C44.4888 29.8654 44.0019 30.0747 43.4712 30.0747C42.6012 30.0747 41.994 29.4636 41.994 28.5882ZM46.4254 27.1567H47L47.9027 29.3313L48.8054 27.1567H49.3799L48.1763 30.0195H47.6292L46.4254 27.1567ZM53.2404 28.3294C53.1583 27.8835 52.8628 27.6248 52.4142 27.6248C51.9655 27.6248 51.6701 27.8835 51.588 28.3294H53.2404ZM50.9916 28.5882C50.9916 27.7128 51.599 27.1018 52.4142 27.1018C53.2294 27.1018 53.8368 27.7128 53.8368 28.5882V28.7534H51.5771C51.6372 29.2544 51.9874 29.5517 52.4689 29.5517C52.819 29.5517 53.1856 29.425 53.388 29.1552L53.7437 29.513C53.4866 29.8654 52.9996 30.0747 52.4689 30.0747C51.599 30.0747 50.9916 29.4636 50.9916 28.5882ZM55.8897 26.0007H56.4642V30.0195H55.8897V26.0007ZM62.2882 28.4782C62.2882 29.0781 62.7695 29.5517 63.355 29.5517C63.9405 29.5517 64.4219 29.0781 64.4219 28.4782V26.1659H64.9963V28.4782C64.9963 29.4085 64.2797 30.0747 63.355 30.0747C62.4303 30.0747 61.7136 29.4085 61.7136 28.4782V26.1659H62.2882V28.4782ZM67.7855 28.5882C67.7855 29.1883 68.1576 29.5517 68.6882 29.5517C69.2189 29.5517 69.5637 29.1883 69.5637 28.5882C69.5637 27.9881 69.2189 27.6248 68.6882 27.6248C68.1576 27.6248 67.7855 27.9881 67.7855 28.5882ZM67.211 31.1206V27.1567H67.7855V27.6744C67.9715 27.3275 68.2944 27.1018 68.7976 27.1018C69.5034 27.1018 70.1381 27.7128 70.1381 28.5882C70.1381 29.4636 69.5034 30.0747 68.7976 30.0747C68.2778 30.0747 67.9605 29.8654 67.7855 29.535V31.1206H67.211Z" fill="#474747"/>
<path d="M32.2327 17.3725C30.9733 17.3725 29.8699 17.0949 28.9224 16.5398C27.9748 15.9847 27.2372 15.2243 26.7095 14.2589C26.1818 13.2814 25.918 12.1591 25.918 10.8918C25.918 9.91433 26.0799 9.02732 26.4036 8.23081C26.7275 7.42223 27.1712 6.73435 27.735 6.16714C28.3107 5.58787 28.9763 5.14737 29.7319 4.84566C30.4875 4.53189 31.3031 4.375 32.1786 4.375C33.1982 4.375 34.0558 4.50172 34.7513 4.75515C35.459 5.00859 36.0947 5.31632 36.6584 5.67838C36.7423 5.72665 36.8203 5.80509 36.8922 5.91371C36.9762 6.02232 37.0182 6.16111 37.0182 6.33006C37.0182 6.52315 36.9522 6.69814 36.8203 6.85503C36.6884 6.99985 36.5025 7.07226 36.2626 7.07226C36.1307 7.07226 36.0047 7.04209 35.8848 6.98174C35.357 6.66797 34.8114 6.42057 34.2476 6.23955C33.6839 6.05853 33.0543 5.96802 32.3586 5.96802C31.4591 5.96802 30.6435 6.16111 29.9119 6.54729C29.1922 6.92141 28.6165 7.47654 28.1847 8.21271C27.7649 8.93681 27.555 9.82986 27.555 10.8918C27.555 11.8211 27.747 12.6598 28.1308 13.4081C28.5146 14.1442 29.0723 14.7296 29.8039 15.164C30.5355 15.5984 31.4171 15.8157 32.4486 15.8157C33.0842 15.8157 33.6659 15.7433 34.1936 15.5984C34.7214 15.4416 35.1891 15.2485 35.5969 15.0192V11.7426H32.6284C32.4246 11.7426 32.2507 11.6703 32.1067 11.5254C31.9628 11.3806 31.8909 11.2056 31.8909 11.0005C31.8909 10.7953 31.9628 10.6203 32.1067 10.4755C32.2507 10.3307 32.4246 10.2583 32.6284 10.2583H36.1726C36.4125 10.2583 36.6164 10.3427 36.7843 10.5117C36.9522 10.6807 37.0362 10.8858 37.0362 11.1272V15.2364C37.0362 15.4898 36.9702 15.7192 36.8383 15.9243C36.7183 16.1175 36.5564 16.2622 36.3525 16.3588C35.7648 16.6604 35.1231 16.9079 34.4276 17.101C33.7439 17.282 33.0123 17.3725 32.2327 17.3725ZM45.9026 17.3725C45.303 17.3725 44.6973 17.276 44.0856 17.0829C43.4739 16.8898 42.9162 16.5941 42.4124 16.1958C41.9087 15.7856 41.5009 15.2726 41.189 14.6572C40.8893 14.0296 40.7393 13.2934 40.7393 12.4487V5.29823C40.7393 5.06892 40.8172 4.87584 40.9732 4.71895C41.1291 4.54999 41.321 4.46551 41.5489 4.46551C41.7768 4.46551 41.9686 4.54999 42.1246 4.71895C42.2925 4.87584 42.3764 5.06892 42.3764 5.29823V12.503C42.3764 13.2512 42.5444 13.8787 42.8802 14.3856C43.228 14.8804 43.6718 15.2546 44.2115 15.508C44.7512 15.7494 45.315 15.87 45.9026 15.87C46.4904 15.87 47.054 15.7494 47.5937 15.508C48.1335 15.2546 48.5712 14.8804 48.9071 14.3856C49.2549 13.8787 49.4288 13.2512 49.4288 12.503V5.29823C49.4288 5.06892 49.5068 4.87584 49.6627 4.71895C49.8186 4.54999 50.0105 4.46551 50.2384 4.46551C50.4663 4.46551 50.6582 4.54999 50.8141 4.71895C50.982 4.87584 51.066 5.06892 51.066 5.29823V12.4487C51.066 13.2934 50.91 14.0296 50.5982 14.6572C50.2984 15.2726 49.8965 15.7856 49.3928 16.1958C48.8891 16.5941 48.3314 16.8898 47.7197 17.0829C47.108 17.276 46.5024 17.3725 45.9026 17.3725ZM59.3023 17.282C58.8106 17.282 58.4388 17.0044 58.1869 16.4492L53.7432 5.60596C53.7072 5.50942 53.6892 5.40684 53.6892 5.29823C53.6892 5.05686 53.7612 4.85773 53.9051 4.70084C54.0491 4.54395 54.247 4.46551 54.4988 4.46551C54.8586 4.46551 55.1165 4.65257 55.2724 5.02668L59.5002 15.6347L63.728 5.02668C63.884 4.65257 64.1418 4.46551 64.5017 4.46551C64.7535 4.46551 64.9514 4.54395 65.0954 4.70084C65.2393 4.85773 65.3112 5.05686 65.3112 5.29823C65.3112 5.40684 65.2933 5.50942 65.2573 5.60596L60.8136 16.4492C60.5617 17.0044 60.1898 17.282 59.6981 17.282H59.3023ZM68.8434 17.282C68.6156 17.282 68.4236 17.2035 68.2677 17.0466C68.1118 16.8898 68.0339 16.6967 68.0339 16.4674V5.29823C68.0339 5.06892 68.1118 4.87584 68.2677 4.71895C68.4236 4.54999 68.6156 4.46551 68.8434 4.46551C69.0713 4.46551 69.2633 4.54999 69.4191 4.71895C69.587 4.87584 69.671 5.06892 69.671 5.29823V16.4674C69.671 16.6967 69.587 16.8898 69.4191 17.0466C69.2633 17.2035 69.0713 17.282 68.8434 17.282Z" fill="black"/>
<mask id="mask1_32205_82102" style="mask-type:luminance" maskUnits="userSpaceOnUse" x="25" y="3" width="46" height="15">
<path d="M70.0192 3.99219H25.5371V17.7952H70.0192V3.99219Z" fill="white"/>
<path d="M32.2386 17.3686C30.9791 17.3686 29.8758 17.091 28.9282 16.5359C27.9807 15.9808 27.2431 15.2204 26.7153 14.255C26.1877 13.2775 25.9238 12.1551 25.9238 10.8879C25.9238 9.91043 26.0857 9.02341 26.4095 8.22691C26.7334 7.41833 27.1771 6.73044 27.7408 6.16323C28.3166 5.58396 28.9822 5.14346 29.7378 4.84176C30.4934 4.52798 31.309 4.37109 32.1845 4.37109C33.2041 4.37109 34.0616 4.49782 34.7572 4.75124C35.4649 5.00468 36.1005 5.31242 36.6643 5.67447C36.7482 5.72274 36.8262 5.80118 36.8981 5.9098C36.9821 6.01841 37.0241 6.1572 37.0241 6.32615C37.0241 6.51924 36.9581 6.69424 36.8262 6.85113C36.6942 6.99594 36.5083 7.06835 36.2685 7.06835C36.1365 7.06835 36.0106 7.03819 35.8906 6.97784C35.3629 6.66406 34.8172 6.41667 34.2535 6.23564C33.6897 6.05462 33.0601 5.96411 32.3644 5.96411C31.4649 5.96411 30.6493 6.1572 29.9177 6.54338C29.1981 6.9175 28.6224 7.47264 28.1906 8.2088C27.7708 8.9329 27.5609 9.82595 27.5609 10.8879C27.5609 11.8172 27.7528 12.6559 28.1366 13.4042C28.5204 14.1403 29.0781 14.7256 29.8098 15.1601C30.5414 15.5945 31.423 15.8118 32.4544 15.8118C33.0901 15.8118 33.6718 15.7394 34.1995 15.5945C34.7272 15.4377 35.195 15.2446 35.6028 15.0153V11.7387H32.6343C32.4304 11.7387 32.2565 11.6664 32.1126 11.5215C31.9686 11.3767 31.8967 11.2017 31.8967 10.9966C31.8967 10.7914 31.9686 10.6164 32.1126 10.4716C32.2565 10.3268 32.4304 10.2544 32.6343 10.2544H36.1785C36.4184 10.2544 36.6222 10.3388 36.7902 10.5078C36.9581 10.6768 37.042 10.8819 37.042 11.1233V15.2325C37.042 15.4859 36.9761 15.7153 36.8441 15.9204C36.7242 16.1136 36.5623 16.2583 36.3583 16.3549C35.7707 16.6565 35.129 16.904 34.4334 17.0971C33.7497 17.2781 33.0182 17.3686 32.2386 17.3686ZM45.9085 17.3686C45.3088 17.3686 44.7031 17.2721 44.0915 17.079C43.4797 16.8859 42.922 16.5902 42.4183 16.1919C41.9146 15.7817 41.5068 15.2687 41.1949 14.6533C40.8951 14.0257 40.7451 13.2895 40.7451 12.4448V5.29432C40.7451 5.06502 40.8231 4.87193 40.979 4.71504C41.135 4.54609 41.3268 4.4616 41.5548 4.4616C41.7826 4.4616 41.9745 4.54609 42.1304 4.71504C42.2984 4.87193 42.3823 5.06502 42.3823 5.29432V12.4991C42.3823 13.2473 42.5502 13.8748 42.886 14.3817C43.2339 14.8765 43.6776 15.2507 44.2174 15.5041C44.7571 15.7454 45.3208 15.8661 45.9085 15.8661C46.4962 15.8661 47.0599 15.7454 47.5996 15.5041C48.1393 15.2507 48.5771 14.8765 48.913 14.3817C49.2608 13.8748 49.4347 13.2473 49.4347 12.4991V5.29432C49.4347 5.06502 49.5126 4.87193 49.6686 4.71504C49.8245 4.54609 50.0164 4.4616 50.2442 4.4616C50.4722 4.4616 50.664 4.54609 50.82 4.71504C50.9879 4.87193 51.0718 5.06502 51.0718 5.29432V12.4448C51.0718 13.2895 50.9159 14.0257 50.6041 14.6533C50.3042 15.2687 49.9024 15.7817 49.3987 16.1919C48.8949 16.5902 48.3372 16.8859 47.7256 17.079C47.1138 17.2721 46.5082 17.3686 45.9085 17.3686ZM59.3082 17.2781C58.8164 17.2781 58.4446 17.0005 58.1928 16.4453L53.749 5.60206C53.7131 5.50552 53.6951 5.40294 53.6951 5.29432C53.6951 5.05295 53.7671 4.85382 53.911 4.69694C54.0549 4.54005 54.2528 4.4616 54.5047 4.4616C54.8645 4.4616 55.1223 4.64867 55.2782 5.02278L59.5061 15.6308L63.7339 5.02278C63.8898 4.64867 64.1476 4.4616 64.5075 4.4616C64.7594 4.4616 64.9573 4.54005 65.1012 4.69694C65.2452 4.85382 65.3171 5.05295 65.3171 5.29432C65.3171 5.40294 65.2991 5.50552 65.2631 5.60206L60.8194 16.4453C60.5676 17.0005 60.1957 17.2781 59.704 17.2781H59.3082ZM68.8493 17.2781C68.6215 17.2781 68.4295 17.1996 68.2736 17.0427C68.1176 16.8859 68.0398 16.6928 68.0398 16.4635V5.29432C68.0398 5.06502 68.1176 4.87193 68.2736 4.71504C68.4295 4.54609 68.6215 4.4616 68.8493 4.4616C69.0772 4.4616 69.2691 4.54609 69.425 4.71504C69.5929 4.87193 69.6768 5.06502 69.6768 5.29432V16.4635C69.6768 16.6928 69.5929 16.8859 69.425 17.0427C69.2691 17.1996 69.0772 17.2781 68.8493 17.2781Z" fill="black"/>
</mask>
<g mask="url(#mask1_32205_82102)">
<path d="M26.7085 14.2462L26.4228 14.4023L26.4232 14.4031L26.4236 14.4039L26.7085 14.2462ZM26.4027 8.21812L26.7036 8.34199L26.7039 8.34119L26.7043 8.3404L26.4027 8.21812ZM29.7309 4.83297L29.8509 5.13706L29.853 5.13623L29.855 5.13539L29.7309 4.83297ZM34.7504 4.74246L34.6397 5.05007L34.6405 5.05038L34.6413 5.05067L34.7504 4.74246ZM36.6574 5.66568L36.4824 5.94144L36.4892 5.94575L36.4961 5.94973L36.6574 5.66568ZM36.8912 5.90102L36.6207 6.08248L36.6274 6.09243L36.6346 6.10187L36.8912 5.90102ZM36.8193 6.84234L37.059 7.0634L37.0633 7.05862L37.0675 7.05366L36.8193 6.84234ZM35.8838 6.96905L35.7184 7.2507L35.7282 7.25654L35.7383 7.26167L35.8838 6.96905ZM29.9109 6.53459L30.0601 6.82525L30.061 6.82478L30.0619 6.8243L29.9109 6.53459ZM28.1838 8.20002L27.9038 8.03374L27.9034 8.03446L27.9029 8.03517L28.1838 8.20002ZM28.1298 13.3954L27.8409 13.5454L27.8414 13.5464L27.8419 13.5474L28.1298 13.3954ZM34.1927 15.5857L34.2782 15.9014L34.2815 15.9005L34.2848 15.8996L34.1927 15.5857ZM35.5959 15.0065L35.7546 15.2921L35.9211 15.1984V15.0065H35.5959ZM35.5959 11.7299H35.9211V11.4028H35.5959V11.7299ZM36.8373 15.9116L36.5643 15.7339L36.5629 15.7361L36.5616 15.7383L36.8373 15.9116ZM36.3515 16.3461L36.2131 16.0501L36.2084 16.0523L36.2037 16.0546L36.3515 16.3461ZM34.4266 17.0883L34.5093 17.4047L34.5111 17.4042L34.513 17.4037L34.4266 17.0883ZM32.2317 17.0327C31.0211 17.0327 29.9759 16.7663 29.085 16.2444L28.7578 16.8098C29.7619 17.3982 30.9235 17.6869 32.2317 17.6869V17.0327ZM29.085 16.2444C28.1884 15.7191 27.4927 15.002 26.9934 14.0885L26.4236 14.4039C26.9798 15.4214 27.7594 16.2248 28.7578 16.8098L29.085 16.2444ZM26.9942 14.09C26.4958 13.1668 26.2421 12.0995 26.2421 10.8791H25.5918C25.5918 12.1932 25.8659 13.3706 26.4228 14.4023L26.9942 14.09ZM26.2421 10.8791C26.2421 9.93838 26.3978 9.0942 26.7036 8.34199L26.1018 8.09425C25.7599 8.93505 25.5918 9.8649 25.5918 10.8791H26.2421ZM26.7043 8.3404C27.0132 7.56909 27.4337 6.91924 27.9639 6.38577L27.5041 5.92311C26.9069 6.52407 26.4399 7.25 26.1012 8.09583L26.7043 8.3404ZM27.9639 6.38577C28.5083 5.83799 29.1365 5.42229 29.8509 5.13706L29.611 4.52889C28.8142 4.84708 28.1111 5.31235 27.5041 5.92311L27.9639 6.38577ZM29.855 5.13539C30.5685 4.83908 31.3417 4.68946 32.1777 4.68946V4.03516C31.2627 4.03516 30.4046 4.19932 29.607 4.53056L29.855 5.13539ZM32.1777 4.68946C33.1727 4.68946 33.9901 4.81343 34.6397 5.05007L34.8611 4.43485C34.1193 4.16462 33.2216 4.03516 32.1777 4.03516V4.68946ZM34.6413 5.05067C35.3286 5.29682 35.9418 5.59419 36.4824 5.94144L36.8323 5.38992C36.2456 5.01308 35.5873 4.69497 34.8594 4.43425L34.6413 5.05067ZM36.4961 5.94973C36.5239 5.96571 36.5677 6.00236 36.6207 6.08248L37.1618 5.71955C37.071 5.58244 36.9588 5.4622 36.8187 5.38164L36.4961 5.94973ZM36.6346 6.10187C36.6648 6.14093 36.692 6.20416 36.692 6.31737H37.3423C37.3423 6.09266 37.2856 5.87831 37.1479 5.70016L36.6346 6.10187ZM36.692 6.31737C36.692 6.42786 36.6568 6.52908 36.5711 6.63101L37.0675 7.05366C37.2457 6.84181 37.3423 6.59306 37.3423 6.31737H36.692ZM36.5797 6.62128C36.523 6.68347 36.4328 6.73241 36.2616 6.73241V7.38671C36.5702 7.38671 36.8518 7.29084 37.059 7.0634L36.5797 6.62128ZM36.2616 6.73241C36.1809 6.73241 36.1048 6.71446 36.0292 6.67644L35.7383 7.26167C35.9027 7.34433 36.0784 7.38671 36.2616 7.38671V6.73241ZM36.0492 6.6874C35.5012 6.36159 34.9332 6.10394 34.3455 5.91519L34.1478 6.53852C34.6874 6.71182 35.2109 6.94897 35.7184 7.2507L36.0492 6.6874ZM34.3455 5.91519C33.7448 5.72229 33.081 5.62817 32.3576 5.62817V6.28248C33.0254 6.28248 33.6211 6.36937 34.1478 6.53852L34.3455 5.91519ZM32.3576 5.62817C31.4103 5.62817 30.5421 5.83197 29.7598 6.24489L30.0619 6.8243C30.7429 6.46486 31.5059 6.28248 32.3576 6.28248V5.62817ZM29.7616 6.24395C28.9849 6.64773 28.365 7.24727 27.9038 8.03374L28.4638 8.36629C28.866 7.68042 29.3976 7.16969 30.0601 6.82525L29.7616 6.24395ZM27.9029 8.03517C27.4473 8.82099 27.229 9.77446 27.229 10.8791H27.8792C27.8792 9.85986 28.0806 9.02723 28.4646 8.36486L27.9029 8.03517ZM27.229 10.8791C27.229 11.8552 27.4309 12.7462 27.8409 13.5454L28.4187 13.2453C28.0611 12.5482 27.8792 11.7617 27.8792 10.8791H27.229ZM27.8419 13.5474C28.2546 14.339 28.8555 14.9686 29.6376 15.4331L29.9682 14.8696C29.2871 14.4652 28.7726 13.9241 28.4178 13.2434L27.8419 13.5474ZM29.6376 15.4331C30.429 15.903 31.3704 16.1301 32.4476 16.1301V15.4758C31.4618 15.4758 30.6401 15.2686 29.9682 14.8696L29.6376 15.4331ZM32.4476 16.1301C33.1075 16.1301 33.7185 16.055 34.2782 15.9014L34.1071 15.2702C33.6114 15.4062 33.0589 15.4758 32.4476 15.4758V16.1301ZM34.2848 15.8996C34.8317 15.737 35.3224 15.5351 35.7546 15.2921L35.4374 14.7209C35.054 14.9365 34.6091 15.1209 34.1006 15.272L34.2848 15.8996ZM35.9211 15.0065V11.7299H35.2708V15.0065H35.9211ZM35.5959 11.4028H32.6274V12.0571H35.5959V11.4028ZM32.6274 11.4028C32.5096 11.4028 32.4185 11.3648 32.3356 11.2814L31.8759 11.744C32.0808 11.9504 32.3375 12.0571 32.6274 12.0571V11.4028ZM32.3356 11.2814C32.2528 11.1981 32.215 11.1064 32.215 10.9878H31.5647C31.5647 11.2795 31.6708 11.5378 31.8759 11.744L32.3356 11.2814ZM32.215 10.9878C32.215 10.8692 32.2528 10.7775 32.3356 10.6941L31.8759 10.2315C31.6708 10.4377 31.5647 10.696 31.5647 10.9878H32.215ZM32.3356 10.6941C32.4185 10.6108 32.5096 10.5727 32.6274 10.5727V9.91844C32.3375 9.91844 32.0808 10.0252 31.8759 10.2315L32.3356 10.6941ZM32.6274 10.5727H36.1717V9.91844H32.6274V10.5727ZM36.1717 10.5727C36.3263 10.5727 36.4471 10.6235 36.5534 10.7303L37.0132 10.2677C36.7836 10.0367 36.4968 9.91844 36.1717 9.91844V10.5727ZM36.5534 10.7303C36.6597 10.8372 36.7101 10.9589 36.7101 11.1145H37.3604C37.3604 10.7874 37.2428 10.4987 37.0132 10.2677L36.5534 10.7303ZM36.7101 11.1145V15.2237H37.3604V11.1145H36.7101ZM36.7101 15.2237C36.7101 15.4166 36.6609 15.5837 36.5643 15.7339L37.1102 16.0893C37.2776 15.8292 37.3604 15.5377 37.3604 15.2237H36.7101ZM36.5616 15.7383C36.4746 15.8782 36.3602 15.9804 36.2131 16.0501L36.49 16.6421C36.7506 16.5187 36.9601 16.3312 37.1131 16.085L36.5616 15.7383ZM36.2037 16.0546C35.6374 16.3454 35.0164 16.5851 34.34 16.7729L34.513 17.4037C35.2279 17.2053 35.8903 16.9501 36.4993 16.6375L36.2037 16.0546ZM34.3438 16.7719C33.6897 16.9451 32.9862 17.0327 32.2317 17.0327V17.6869C33.0363 17.6869 33.7961 17.5936 34.5093 17.4047L34.3438 16.7719ZM42.4115 16.1831L42.2069 16.4375L42.2087 16.439L42.2105 16.4404L42.4115 16.1831ZM41.1881 14.6445L40.895 14.7862L40.8967 14.7896L40.8985 14.7931L41.1881 14.6445ZM40.9722 4.70626L41.2021 4.93759L41.2064 4.9333L41.2104 4.92887L40.9722 4.70626ZM42.1236 4.70626L41.8853 4.92887L41.8935 4.93775L41.9024 4.94599L42.1236 4.70626ZM42.8792 14.3729L42.6087 14.5544L42.6112 14.5581L42.6138 14.5619L42.8792 14.3729ZM44.2105 15.4953L44.073 15.7918L44.0758 15.793L44.0785 15.7942L44.2105 15.4953ZM47.5928 15.4953L47.7248 15.7942L47.7275 15.793L47.7302 15.7918L47.5928 15.4953ZM48.9061 14.3729L48.6385 14.1871L48.638 14.1878L48.6376 14.1884L48.9061 14.3729ZM49.6617 4.70626L49.8916 4.93759L49.8958 4.9333L49.9 4.92887L49.6617 4.70626ZM50.8131 4.70626L50.5749 4.92887L50.583 4.93775L50.5919 4.94599L50.8131 4.70626ZM50.5973 14.6445L50.3064 14.4981L50.3059 14.4993L50.3053 14.5005L50.5973 14.6445ZM49.3918 16.1831L49.5927 16.4404L49.5946 16.439L49.5964 16.4375L49.3918 16.1831ZM45.9016 17.0327C45.3372 17.0327 44.7643 16.9419 44.182 16.7581L43.9873 17.3824C44.6283 17.5846 45.2668 17.6869 45.9016 17.6869V17.0327ZM44.182 16.7581C43.6077 16.5768 43.0851 16.2997 42.6123 15.9259L42.2105 16.4404C42.7452 16.8631 43.3381 17.1774 43.9873 17.3824L44.182 16.7581ZM42.616 15.9289C42.1498 15.5491 41.7702 15.073 41.4777 14.4959L40.8985 14.7931C41.2297 15.4469 41.6657 15.9966 42.2069 16.4375L42.616 15.9289ZM41.4811 14.5027C41.2064 13.9279 41.0635 13.242 41.0635 12.436H40.4132C40.4132 13.3195 40.57 14.106 40.895 14.7862L41.4811 14.5027ZM41.0635 12.436V5.28553H40.4132V12.436H41.0635ZM41.0635 5.28553C41.0635 5.13976 41.1094 5.03086 41.2021 4.93759L40.7423 4.47492C40.5231 4.69543 40.4132 4.97271 40.4132 5.28553H41.0635ZM41.2104 4.92887C41.3053 4.82616 41.411 4.77997 41.5479 4.77997V4.12567C41.229 4.12567 40.951 4.24844 40.7339 4.48364L41.2104 4.92887ZM41.5479 4.77997C41.6848 4.77997 41.7905 4.82616 41.8853 4.92887L42.3618 4.48364C42.1448 4.24844 41.8668 4.12567 41.5479 4.12567V4.77997ZM41.9024 4.94599C42.0045 5.04136 42.0504 5.14778 42.0504 5.28553H42.7006C42.7006 4.9647 42.5786 4.68492 42.3449 4.46652L41.9024 4.94599ZM42.0504 5.28553V12.4903H42.7006V5.28553H42.0504ZM42.0504 12.4903C42.0504 13.2883 42.2299 13.9827 42.6087 14.5544L43.1497 14.1914C42.8569 13.7495 42.7006 13.1888 42.7006 12.4903H42.0504ZM42.6138 14.5619C42.9939 15.1025 43.4814 15.514 44.073 15.7918L44.348 15.1989C43.8601 14.9697 43.4603 14.6329 43.1447 14.184L42.6138 14.5619ZM44.0785 15.7942C44.6596 16.0541 45.2682 16.1844 45.9016 16.1844V15.5302C45.3597 15.5302 44.8409 15.4192 44.3425 15.1963L44.0785 15.7942ZM45.9016 16.1844C46.5351 16.1844 47.1437 16.0541 47.7248 15.7942L47.4607 15.1963C46.9623 15.4192 46.4436 15.5302 45.9016 15.5302V16.1844ZM47.7302 15.7918C48.3228 15.5135 48.8059 15.1007 49.1745 14.5574L48.6376 14.1884C48.3346 14.6348 47.9422 14.9702 47.4553 15.1989L47.7302 15.7918ZM49.1736 14.5588C49.5664 13.9865 49.7529 13.2905 49.7529 12.4903H49.1027C49.1027 13.1866 48.9414 13.7457 48.6385 14.1871L49.1736 14.5588ZM49.7529 12.4903V5.28553H49.1027V12.4903H49.7529ZM49.7529 5.28553C49.7529 5.13975 49.7989 5.03086 49.8916 4.93759L49.4318 4.47492C49.2127 4.69543 49.1027 4.97271 49.1027 5.28553H49.7529ZM49.9 4.92887C49.9948 4.82616 50.1005 4.77997 50.2374 4.77997V4.12567C49.9185 4.12567 49.6405 4.24844 49.4235 4.48364L49.9 4.92887ZM50.2374 4.77997C50.3744 4.77997 50.4801 4.82616 50.5749 4.92887L51.0514 4.48364C50.8343 4.24844 50.5563 4.12567 50.2374 4.12567V4.77997ZM50.5919 4.94599C50.694 5.04136 50.7399 5.14778 50.7399 5.28553H51.3901C51.3901 4.9647 51.2681 4.68492 51.0343 4.46652L50.5919 4.94599ZM50.7399 5.28553V12.436H51.3901V5.28553H50.7399ZM50.7399 12.436C50.7399 13.2402 50.5915 13.9244 50.3064 14.4981L50.8881 14.7907C51.2266 14.1094 51.3901 13.3213 51.3901 12.436H50.7399ZM50.3053 14.5005C50.0252 15.0754 49.6523 15.55 49.1873 15.9289L49.5964 16.4375C50.1387 15.9957 50.5696 15.4445 50.8892 14.7884L50.3053 14.5005ZM49.191 15.9259C48.7182 16.2997 48.1955 16.5768 47.6214 16.7581L47.8161 17.3824C48.4653 17.1774 49.058 16.8631 49.5927 16.4404L49.191 15.9259ZM47.6214 16.7581C47.039 16.9419 46.4661 17.0327 45.9016 17.0327V17.6869C46.5366 17.6869 47.1751 17.5846 47.8161 17.3824L47.6214 16.7581ZM58.1859 16.4366L57.8854 16.5613L57.8877 16.567L57.8901 16.5724L58.1859 16.4366ZM53.7422 5.59327L53.4378 5.70814L53.4397 5.71309L53.4416 5.71798L53.7422 5.59327ZM55.2714 5.01399L55.5732 4.89223L55.5723 4.88985L55.5713 4.88748L55.2714 5.01399ZM59.4992 15.622L59.1974 15.7438L59.4992 16.5009L59.801 15.7438L59.4992 15.622ZM63.727 5.01399L63.4273 4.88748L63.4263 4.88985L63.4252 4.89223L63.727 5.01399ZM65.2563 5.59327L65.5569 5.71798L65.5589 5.71309L65.5607 5.70814L65.2563 5.59327ZM60.8126 16.4366L61.1083 16.5724L61.1109 16.567L61.1132 16.5613L60.8126 16.4366ZM59.3013 16.9422C59.1207 16.9422 58.9737 16.8927 58.8474 16.7984C58.7172 16.7012 58.5916 16.5431 58.4817 16.3008L57.8901 16.5724C58.032 16.8853 58.2183 17.1434 58.46 17.3239C58.7055 17.5072 58.9904 17.5965 59.3013 17.5965V16.9422ZM58.4865 16.3119L54.0428 5.46856L53.4416 5.71798L57.8854 16.5613L58.4865 16.3119ZM54.0467 5.4784C54.0251 5.42052 54.0134 5.35704 54.0134 5.28553H53.3631C53.3631 5.43126 53.3874 5.57293 53.4378 5.70814L54.0467 5.4784ZM54.0134 5.28553C54.0134 5.11485 54.0619 4.99852 54.143 4.91005L53.6652 4.46626C53.4585 4.69156 53.3631 4.97348 53.3631 5.28553H54.0134ZM54.143 4.91005C54.2139 4.83279 54.3182 4.77997 54.4979 4.77997V4.12567C54.1737 4.12567 53.8822 4.22974 53.6652 4.46626L54.143 4.91005ZM54.4979 4.77997C54.6189 4.77997 54.7045 4.81032 54.7709 4.85849C54.8399 4.90848 54.9106 4.99429 54.9716 5.14051L55.5713 4.88748C55.4763 4.65959 55.3402 4.4648 55.1512 4.32774C54.9597 4.18886 54.7366 4.12567 54.4979 4.12567V4.77997ZM54.9696 5.13576L59.1974 15.7438L59.801 15.5002L55.5732 4.89223L54.9696 5.13576ZM59.801 15.7438L64.0288 5.13576L63.4252 4.89223L59.1974 15.5002L59.801 15.7438ZM64.0269 5.14051C64.0878 4.99429 64.1586 4.90848 64.2275 4.85849C64.2939 4.81032 64.3796 4.77997 64.5007 4.77997V4.12567C64.2618 4.12567 64.0387 4.18886 63.8473 4.32774C63.6583 4.4648 63.5222 4.65959 63.4273 4.88748L64.0269 5.14051ZM64.5007 4.77997C64.6802 4.77997 64.7845 4.83279 64.8554 4.91005L65.3332 4.46626C65.1163 4.22974 64.8248 4.12567 64.5007 4.12567V4.77997ZM64.8554 4.91005C64.9366 4.99852 64.9851 5.11485 64.9851 5.28553H65.6353C65.6353 4.97348 65.5399 4.69156 65.3332 4.46626L64.8554 4.91005ZM64.9851 5.28553C64.9851 5.35704 64.9734 5.42052 64.9519 5.4784L65.5607 5.70814C65.6111 5.57293 65.6353 5.43126 65.6353 5.28553H64.9851ZM64.9557 5.46856L60.512 16.3119L61.1132 16.5613L65.5569 5.71798L64.9557 5.46856ZM60.5168 16.3008C60.4068 16.5431 60.2812 16.7012 60.1511 16.7984C60.0248 16.8927 59.8779 16.9422 59.6971 16.9422V17.5965C60.0082 17.5965 60.293 17.5072 60.5386 17.3239C60.7801 17.1434 60.9664 16.8853 61.1083 16.5724L60.5168 16.3008ZM59.6971 16.9422H59.3013V17.5965H59.6971V16.9422ZM68.2667 4.70626L68.4967 4.93759L68.5009 4.9333L68.505 4.92887L68.2667 4.70626ZM69.4181 4.70626L69.1799 4.92887L69.1881 4.93775L69.1969 4.94599L69.4181 4.70626ZM69.4181 17.0339L69.1969 16.7942L69.1925 16.7984L69.1882 16.8026L69.4181 17.0339ZM68.8425 16.9422C68.6975 16.9422 68.5894 16.8959 68.4967 16.8026L68.0368 17.2653C68.2559 17.4858 68.5316 17.5965 68.8425 17.5965V16.9422ZM68.4967 16.8026C68.4039 16.7094 68.358 16.6005 68.358 16.4547H67.7077C67.7077 16.7675 67.8177 17.0448 68.0368 17.2653L68.4967 16.8026ZM68.358 16.4547V5.28553H67.7077V16.4547H68.358ZM68.358 5.28553C68.358 5.13976 68.4039 5.03086 68.4967 4.93759L68.0368 4.47492C67.8177 4.69543 67.7077 4.97271 67.7077 5.28553H68.358ZM68.505 4.92887C68.5998 4.82616 68.7056 4.77997 68.8425 4.77997V4.12567C68.5236 4.12567 68.2455 4.24844 68.0285 4.48364L68.505 4.92887ZM68.8425 4.77997C68.9793 4.77997 69.0852 4.82616 69.1799 4.92887L69.6564 4.48364C69.4394 4.24844 69.1613 4.12567 68.8425 4.12567V4.77997ZM69.1969 4.94599C69.299 5.04136 69.3449 5.14778 69.3449 5.28553H69.9952C69.9952 4.9647 69.8731 4.68492 69.6394 4.46652L69.1969 4.94599ZM69.3449 5.28553V16.4547H69.9952V5.28553H69.3449ZM69.3449 16.4547C69.3449 16.5924 69.299 16.6989 69.1969 16.7942L69.6394 17.2738C69.8731 17.0554 69.9952 16.7755 69.9952 16.4547H69.3449ZM69.1882 16.8026C69.0955 16.8959 68.9873 16.9422 68.8425 16.9422V17.5965C69.1533 17.5965 69.4289 17.4858 69.6481 17.2653L69.1882 16.8026Z" fill="black"/>
</g>
</svg>
